<svg xmlns="http://www.w3.org/2000/svg" width="current" height="current" viewBox="0 0 38 38" fill="none">
<path fill-rule="evenodd" clip-rule="evenodd" d="M6.28125 0H8.375H10.4688H12.5625V2.09375V4.1875V6.28125H14.6562V8.375H12.5625H10.4688V6.28125H8.375V4.1875H10.4688V2.09375H8.375H6.28125V0ZM2.09375 6.28125H4.1875V4.1875H6.28125V2.09375H4.1875H2.09375V4.1875V6.28125ZM6.28125 8.375H4.1875V10.4688H2.09375V8.375V6.28125H0V8.375V10.4688V12.5625H2.09375H4.1875V14.6562V16.75H2.09375V18.8438V20.9375V23.0312V25.125H4.1875V27.2188V29.3125H6.28125V31.4062V33.5H4.1875V35.5938H2.09375V37.6875H4.1875H6.28125V35.5938H8.375V33.5H10.4688V35.5938H12.5625H14.6562V37.6875H16.75H18.8438H20.9375H23.0312V35.5938H25.125H27.2188V33.5H29.3125V35.5938H31.4062V37.6875H33.5H35.5938V35.5938H33.5V33.5H31.4062V31.4062V29.3125H33.5V27.2188V25.125H35.5938V23.0312V20.9375V18.8438V16.75H33.5V14.6562V12.5625H35.5938H37.6875V10.4688V8.375V6.28125H35.5938V4.1875V2.09375H33.5H31.4062V0H29.3125H27.2188H25.125V2.09375V4.1875V6.28125H23.0312V4.1875H20.9375V2.09375H23.0312V0H20.9375H18.8438H16.75H14.6562V2.09375H16.75V4.1875H14.6562V6.28125H16.75H18.8438H20.9375H23.0312V8.375H25.125H27.2188V10.4688H29.3125V12.5625H31.4062V14.6562V16.75H33.5V18.8438V20.9375V23.0312V25.125H31.4062V27.2188V29.3125H29.3125V31.4062H27.2188V33.5H25.125H23.0312V35.5938H20.9375H18.8438H16.75H14.6562V33.5H12.5625H10.4688V31.4062H8.375V29.3125H6.28125V27.2188V25.125H4.1875V23.0312V20.9375V18.8438V16.75H6.28125V14.6562V12.5625H8.375V10.4688H10.4688V8.375H8.375V6.28125H6.28125V8.375ZM6.28125 8.375H8.375V10.4688H6.28125V8.375ZM29.3125 8.375V10.4688H31.4062V8.375H33.5V10.4688H35.5938V8.375V6.28125H33.5V4.1875H31.4062V2.09375H29.3125H27.2188V4.1875H29.3125V6.28125H27.2188V8.375H29.3125ZM29.3125 8.375V6.28125H31.4062V8.375H29.3125Z" fill="current"/>
</svg>