<svg xmlns="http://www.w3.org/2000/svg" width="38" height="38" viewBox="0 0 38 38" fill="none">
  <path d="M8.375 0H6.28125V2.09375H8.375V0Z" fill="white"/>
  <path d="M10.4688 0H8.375V2.09375H10.4688V0Z" fill="white"/>
  <path d="M12.5625 0H10.4688V2.09375H12.5625V0Z" fill="white"/>
  <path d="M16.75 0H14.6562V2.09375H16.75V0Z" fill="white"/>
  <path d="M18.8438 0H16.75V2.09375H18.8438V0Z" fill="white"/>
  <path d="M20.9375 0H18.8438V2.09375H20.9375V0Z" fill="white"/>
  <path d="M23.0312 0H20.9375V2.09375H23.0312V0Z" fill="white"/>
  <path d="M27.2188 0H25.125V2.09375H27.2188V0Z" fill="white"/>
  <path d="M29.3125 0H27.2188V2.09375H29.3125V0Z" fill="white"/>
  <path d="M31.4062 0H29.3125V2.09375H31.4062V0Z" fill="white"/>
  <path d="M4.1875 2.09375H2.09375V4.1875H4.1875V2.09375Z" fill="white"/>
  <path d="M6.28125 2.09375H4.1875V4.1875H6.28125V2.09375Z" fill="white"/>
  <path d="M12.5625 2.09375H10.4688V4.1875H12.5625V2.09375Z" fill="white"/>
  <path d="M18.8438 2.09375H16.75V4.1875H18.8438V2.09375Z" fill="white"/>
  <path d="M20.9375 2.09375H18.8438V4.1875H20.9375V2.09375Z" fill="white"/>
  <path d="M27.2188 2.09375H25.125V4.1875H27.2188V2.09375Z" fill="white"/>
  <path d="M33.5 2.09375H31.4062V4.1875H33.5V2.09375Z" fill="white"/>
  <path d="M35.5938 2.09375H33.5V4.1875H35.5938V2.09375Z" fill="white"/>
  <path d="M4.1875 4.1875H2.09375V6.28125H4.1875V4.1875Z" fill="white"/>
  <path d="M10.4688 4.1875H8.375V6.28125H10.4688V4.1875Z" fill="white"/>
  <path d="M12.5625 4.1875H10.4688V6.28125H12.5625V4.1875Z" fill="white"/>
  <path d="M16.75 4.1875H14.6562V6.28125H16.75V4.1875Z" fill="white"/>
  <path d="M18.8438 4.1875H16.75V6.28125H18.8438V4.1875Z" fill="white"/>
  <path d="M20.9375 4.1875H18.8438V6.28125H20.9375V4.1875Z" fill="white"/>
  <path d="M23.0312 4.1875H20.9375V6.28125H23.0312V4.1875Z" fill="white"/>
  <path d="M27.2188 4.1875H25.125V6.28125H27.2188V4.1875Z" fill="white"/>
  <path d="M29.3125 4.1875H27.2188V6.28125H29.3125V4.1875Z" fill="white"/>
  <path d="M35.5938 4.1875H33.5V6.28125H35.5938V4.1875Z" fill="white"/>
  <path d="M2.09375 6.28125H0V8.375H2.09375V6.28125Z" fill="white"/>
  <path d="M8.375 6.28125H6.28125V8.375H8.375V6.28125Z" fill="white"/>
  <path d="M12.5625 6.28125H10.4688V8.375H12.5625V6.28125Z" fill="white"/>
  <path d="M14.6562 6.28125H12.5625V8.375H14.6562V6.28125Z" fill="white"/>
  <path d="M25.125 6.28125H23.0312V8.375H25.125V6.28125Z" fill="white"/>
  <path d="M27.2188 6.28125H25.125V8.375H27.2188V6.28125Z" fill="white"/>
  <path d="M31.4062 6.28125H29.3125V8.375H31.4062V6.28125Z" fill="white"/>
  <path d="M37.6875 6.28125H35.5938V8.375H37.6875V6.28125Z" fill="white"/>
  <path d="M2.09375 8.375H0V10.4688H2.09375V8.375Z" fill="white"/>
  <path d="M6.28125 8.375H4.1875V10.4688H6.28125V8.375Z" fill="white"/>
  <path d="M10.4688 8.375H8.375V10.4688H10.4688V8.375Z" fill="white"/>
  <path d="M29.3125 8.375H27.2188V10.4688H29.3125V8.375Z" fill="white"/>
  <path d="M33.5 8.375H31.4062V10.4688H33.5V8.375Z" fill="white"/>
  <path d="M37.6875 8.375H35.5938V10.4688H37.6875V8.375Z" fill="white"/>
  <path d="M2.09375 10.4688H0V12.5625H2.09375V10.4688Z" fill="white"/>
  <path d="M4.1875 10.4688H2.09375V12.5625H4.1875V10.4688Z" fill="white"/>
  <path d="M6.28125 10.4688H4.1875V12.5625H6.28125V10.4688Z" fill="white"/>
  <path d="M8.375 10.4688H6.28125V12.5625H8.375V10.4688Z" fill="white"/>
  <path d="M31.4062 10.4688H29.3125V12.5625H31.4062V10.4688Z" fill="white"/>
  <path d="M33.5 10.4688H31.4062V12.5625H33.5V10.4688Z" fill="white"/>
  <path d="M35.5938 10.4688H33.5V12.5625H35.5938V10.4688Z" fill="white"/>
  <path d="M37.6875 10.4688H35.5938V12.5625H37.6875V10.4688Z" fill="white"/>
  <path d="M6.28125 12.5625H4.1875V14.6562H6.28125V12.5625Z" fill="white"/>
  <path d="M33.5 12.5625H31.4062V14.6562H33.5V12.5625Z" fill="white"/>
  <path d="M6.28125 14.6562H4.1875V16.75H6.28125V14.6562Z" fill="white"/>
  <path d="M33.5 14.6562H31.4062V16.75H33.5V14.6562Z" fill="white"/>
  <path d="M4.1875 16.75H2.09375V18.8438H4.1875V16.75Z" fill="white"/>
  <path d="M35.5938 16.75H33.5V18.8438H35.5938V16.75Z" fill="white"/>
  <path d="M4.1875 18.8438H2.09375V20.9375H4.1875V18.8438Z" fill="white"/>
  <path d="M35.5938 18.8438H33.5V20.9375H35.5938V18.8438Z" fill="white"/>
  <path d="M4.1875 20.9375H2.09375V23.0312H4.1875V20.9375Z" fill="white"/>
  <path d="M35.5938 20.9375H33.5V23.0312H35.5938V20.9375Z" fill="white"/>
  <path d="M4.1875 23.0312H2.09375V25.125H4.1875V23.0312Z" fill="white"/>
  <path d="M35.5938 23.0312H33.5V25.125H35.5938V23.0312Z" fill="white"/>
  <path d="M6.28125 25.125H4.1875V27.2188H6.28125V25.125Z" fill="white"/>
  <path d="M33.5 25.125H31.4062V27.2188H33.5V25.125Z" fill="white"/>
  <path d="M6.28125 27.2188H4.1875V29.3125H6.28125V27.2188Z" fill="white"/>
  <path d="M33.5 27.2188H31.4062V29.3125H33.5V27.2188Z" fill="white"/>
  <path d="M8.375 29.3125H6.28125V31.4062H8.375V29.3125Z" fill="white"/>
  <path d="M31.4062 29.3125H29.3125V31.4062H31.4062V29.3125Z" fill="white"/>
  <path d="M8.375 31.4062H6.28125V33.5H8.375V31.4062Z" fill="white"/>
  <path d="M10.4688 31.4062H8.375V33.5H10.4688V31.4062Z" fill="white"/>
  <path d="M29.3125 31.4062H27.2188V33.5H29.3125V31.4062Z" fill="white"/>
  <path d="M31.4062 31.4062H29.3125V33.5H31.4062V31.4062Z" fill="white"/>
  <path d="M6.28125 33.5H4.1875V35.5938H6.28125V33.5Z" fill="white"/>
  <path d="M8.375 33.5H6.28125V35.5938H8.375V33.5Z" fill="white"/>
  <path d="M12.5625 33.5H10.4688V35.5938H12.5625V33.5Z" fill="white"/>
  <path d="M14.6562 33.5H12.5625V35.5938H14.6562V33.5Z" fill="white"/>
  <path d="M25.125 33.5H23.0312V35.5938H25.125V33.5Z" fill="white"/>
  <path d="M27.2188 33.5H25.125V35.5938H27.2188V33.5Z" fill="white"/>
  <path d="M31.4062 33.5H29.3125V35.5938H31.4062V33.5Z" fill="white"/>
  <path d="M33.5 33.5H31.4062V35.5938H33.5V33.5Z" fill="white"/>
  <path d="M4.1875 35.5938H2.09375V37.6875H4.1875V35.5938Z" fill="white"/>
  <path d="M6.28125 35.5938H4.1875V37.6875H6.28125V35.5938Z" fill="white"/>
  <path d="M16.75 35.5938H14.6562V37.6875H16.75V35.5938Z" fill="white"/>
  <path d="M18.8438 35.5938H16.75V37.6875H18.8438V35.5938Z" fill="white"/>
  <path d="M20.9375 35.5938H18.8438V37.6875H20.9375V35.5938Z" fill="white"/>
  <path d="M23.0312 35.5938H20.9375V37.6875H23.0312V35.5938Z" fill="white"/>
  <path d="M33.5 35.5938H31.4062V37.6875H33.5V35.5938Z" fill="white"/>
  <path d="M35.5938 35.5938H33.5V37.6875H35.5938V35.5938Z" fill="white"/>
</svg>