<svg xmlns="http://www.w3.org/2000/svg" width="current" height="current" viewBox="0 0 40 40" fill="none">
<path fill-rule="evenodd" clip-rule="evenodd" d="M11.4285 8L11.4285 11.4285L8 11.4285V8H11.4285ZM31.9998 11.4285V8H28.5713V11.4285L31.9998 11.4285ZM14.8572 11.4287V14.8572H11.4287L11.4287 11.4287L14.8572 11.4287ZM28.5711 25.1426V28.5711H25.1426V25.1426H28.5711ZM25.1424 18.2855V14.8569H21.7139V18.2855H25.1424ZM18.286 14.8569V18.2855H14.8574L14.8574 14.8569H18.286ZM25.1424 25.1424V21.7139H21.7139V25.1424H25.1424ZM18.286 25.1424V21.7142H21.7137V18.2856H18.2852V21.7139H14.8574L14.8574 25.1424H18.286ZM14.8572 28.5711V25.1426H11.4287L11.4287 28.5711H14.8572ZM28.5711 14.8572V11.4287L25.1426 11.4287V14.8572H28.5711ZM31.9998 28.5713V31.9998H28.5713V28.5713H31.9998ZM11.4285 31.9998L11.4285 28.5713H8V31.9998H11.4285Z" fill="current"/>
</svg>