<svg xmlns="http://www.w3.org/2000/svg" width="24" height="24" viewBox="0 0 24 24" fill="none">
  <path fill-rule="evenodd" clip-rule="evenodd" d="M21.8179 8.72754L21.8179 10.9092L21.8179 10.9094L21.8179 13.091L17.4541 13.091L17.4541 15.2726L10.9086 15.2726L10.9086 13.091L8.72701 13.091L8.72701 10.9094L6.54537 10.9094L6.54537 8.72754L8.72687 8.72754L8.72687 6.5459L10.9086 6.5459L10.9086 4.36426L17.4541 4.36426L17.4541 6.5459L17.4541 6.54608L17.4541 8.72754L17.4549 8.72754L17.4549 6.5459L19.6367 6.5459L19.6367 8.72754L21.8179 8.72754ZM13.0908 10.9092L13.0908 8.72772L13.0913 8.72772L13.0913 10.9092L13.0908 10.9092ZM15.2725 17.4553L15.2725 15.2734L13.0906 15.2734L13.0906 17.4553L15.2725 17.4553ZM15.2725 2.18164L15.2725 4.36346L13.0906 4.36346L13.0906 2.18164L15.2725 2.18164Z" fill="black"/>
  <path fill-rule="evenodd" clip-rule="evenodd" d="M24 8.72754L24 10.9094L21.8184 10.9094L21.8184 13.091L19.6367 13.091L19.6367 15.2726L17.4549 15.2726L17.4549 13.0908L19.6365 13.0908L19.6365 10.9092L21.8182 10.9092L21.8182 8.72772L19.6365 8.72772L19.6365 6.5459L21.8184 6.5459L21.8184 8.72754L24 8.72754ZM17.4541 17.4543L17.4541 15.2725L15.2723 15.2725L15.2723 17.4541L13.0908 17.4541L13.0908 15.2725L10.9092 15.2725L10.9092 13.0908L8.72754 13.0908L8.72754 10.9092L6.5459 10.9092L6.5459 8.72754L4.36408 8.72754L4.36408 10.9092L4.36408 10.9094L4.36408 13.0908L4.36328 13.0908L4.36328 10.9092L2.18146 10.9092L2.18146 13.0908L-0.000177956 13.0908L-0.000178051 15.2726L2.18164 15.2726L2.18164 13.091L2.18208 13.091L2.18208 15.2726L8.72736 15.2726L8.72754 15.2726L10.909 15.2726L10.909 15.2727L4.36364 15.2727L4.36364 17.4545L4.36408 17.4545L4.36408 19.6359L6.54546 19.6359L6.54546 19.6364L6.54572 19.6364L6.54572 21.8176L8.72727 21.8176L8.72727 21.8182L10.909 21.8182L10.909 21.8184L8.72736 21.8184L8.72736 24.0002L10.9092 24.0002L10.9092 21.8185L13.0908 21.8185L13.0908 19.6367L10.9091 19.6367L10.9091 19.6364L13.0909 19.6364L13.0909 19.6359L15.2725 19.6359L15.2725 17.4543L17.4541 17.4543ZM10.9091 17.4543L13.0906 17.4543L13.0906 17.4545L10.9091 17.4545L10.9091 17.4543ZM15.2725 2.18164L15.2725 -3.81493e-07L13.0906 -4.76863e-07L13.0906 2.18164L10.909 2.18164L10.909 4.36328L8.72736 4.36328L8.72736 6.54492L6.54572 6.54492L6.54572 8.72674L8.72754 8.72674L8.72754 6.5451L10.9092 6.5451L10.9092 4.36346L13.0908 4.36346L13.0908 2.18182L15.2723 2.18182L15.2723 4.36346L17.4541 4.36346L17.4541 2.18164L15.2725 2.18164ZM4.36328 17.4553L4.36328 15.2734L2.18146 15.2734L2.18146 17.4553L4.36328 17.4553ZM19.6367 4.36328L19.6367 6.5451L17.4549 6.5451L17.4549 4.36328L19.6367 4.36328Z" fill="white"/>
</svg>