<svg xmlns="http://www.w3.org/2000/svg" width="24" height="22" viewBox="0 0 24 22" fill="none">
  <path fill-rule="evenodd" clip-rule="evenodd" d="M21.8184 13.091L21.8184 10.9092L19.6365 10.9092L19.6365 13.091L21.8184 13.091ZM19.6362 13.0908L19.6362 10.9094L19.6362 10.9092L19.6362 8.72754L17.4546 8.72754L17.4546 6.5459L15.2729 6.5459L15.2728 6.5459L13.0911 6.5459L13.0911 8.72754L13.0911 8.72772L13.0911 10.9092L13.0911 10.9094L13.0911 13.0908L13.0911 13.091L13.0911 15.2725L13.0911 15.2726L13.0911 17.4541L13.0911 17.4543L13.0911 19.6359L15.2729 19.6359L15.2729 17.4543L17.4546 17.4543L17.4546 15.2726L19.6362 15.2726L19.6362 13.091L19.6362 13.0908ZM13.0908 8.72754L13.0908 6.5459L10.9092 6.5459L10.909 6.5459L8.72736 6.5459L8.72736 8.72754L8.72736 8.72772L8.72736 10.9092L8.72736 10.9094L8.72736 13.0908L8.72736 13.091L8.72736 15.2726L10.909 15.2726L10.909 17.4543L13.0908 17.4543L13.0908 15.2726L13.0908 15.2725L13.0908 13.091L13.0908 13.0908L13.0908 10.9094L13.0908 10.9092L13.0908 8.72772L13.0908 8.72754ZM8.72705 10.9092L8.72705 8.72772L8.72705 8.72754L8.72705 6.5459L6.54523 6.5459L6.54523 8.72754L4.36377 8.72754L4.36377 6.5459L2.18195 6.5459L2.18195 8.72772L4.36359 8.72772L4.36359 10.9094L6.54523 10.9094L6.54523 13.091L8.72705 13.091L8.72705 10.9094L8.72705 10.9092ZM2.18164 10.9092L2.18164 8.72772L2.18164 8.72754L2.18164 6.5459L-0.000177383 6.5459L-0.000177479 8.72754L-0.000177479 8.72772L-0.000177574 10.9092L-0.000177574 10.9094L-0.00017767 13.0908L-0.00017767 13.091L-0.000177765 15.2726L2.18164 15.2726L2.18164 13.091L2.18164 13.0908L2.18164 10.9094L2.18164 10.9092ZM2.18164 19.6359L2.18164 17.4541L-0.00017786 17.4541L-0.000177956 19.6359L2.18164 19.6359ZM2.18164 19.6367L2.18164 21.8185L-0.000178051 21.8185L-0.000177956 19.6367L2.18164 19.6367Z" fill="black"/>
  <path fill-rule="evenodd" clip-rule="evenodd" d="M24 10.9092L24 13.091L21.8184 13.091L21.8184 15.2726L19.6365 15.2726L19.6365 13.0908L21.8182 13.0908L21.8182 10.9094L19.6365 10.9094L19.6365 8.72754L21.8184 8.72754L21.8184 10.9092L24 10.9092ZM19.6362 17.4543L19.6362 15.2725L17.4544 15.2725L17.4544 17.4541L15.2728 17.4541L15.2728 19.6359L17.4546 19.6359L17.4546 17.4543L19.6362 17.4543ZM19.6362 6.5459L19.6362 8.72772L17.4544 8.72772L17.4544 6.5459L19.6362 6.5459ZM17.4546 6.5451L17.4546 4.36328L15.2729 4.36328L15.2729 2.18164L13.0911 2.18164L13.0911 4.36346L15.2728 4.36346L15.2728 6.5451L17.4546 6.5451ZM13.0908 2.18182L13.0908 -4.76855e-07L10.909 -5.72224e-07L10.909 2.18164L8.72736 2.18164L8.72736 4.36346L10.9092 4.36346L10.9092 2.18182L13.0908 2.18182ZM8.72705 6.5451L8.72705 4.36328L6.54523 4.36328L6.54523 6.5451L8.72705 6.5451ZM6.54541 6.5459L6.54541 8.72772L4.36377 8.72772L4.36377 10.9092L6.54541 10.9092L6.54541 13.0908L8.72705 13.0908L8.72705 15.2726L6.54523 15.2726L6.54523 13.091L4.36359 13.091L4.36359 10.9094L2.18195 10.9094L2.18195 8.72754L4.36359 8.72754L4.36359 6.5459L6.54541 6.5459ZM10.909 17.4543L10.909 19.6359L13.0908 19.6359L13.0908 17.4541L10.9092 17.4541L10.9092 15.2725L8.72736 15.2725L8.72736 17.4543L10.909 17.4543ZM15.2729 19.6367L15.2729 21.8185L13.0911 21.8185L13.0911 19.6367L15.2729 19.6367Z" fill="white"/>
</svg>