<svg xmlns="http://www.w3.org/2000/svg" width="24" height="24" viewBox="0 0 24 24" fill="none">
  <path fill-rule="evenodd" clip-rule="evenodd" d="M24 2.18164L24 4.36328L24 4.36346L24 6.5451L21.8182 6.5451L21.8182 4.36346L21.8182 4.36328L21.8182 2.18182L19.6365 2.18182L19.6365 -1.90731e-07L21.8184 -9.53607e-08L21.8184 2.18164L24 2.18164ZM21.8184 8.72772L21.8184 6.5459L19.6365 6.5459L19.6365 8.72772L21.8184 8.72772ZM19.6357 8.72656L19.6357 10.9084L17.4539 10.9084L17.4539 8.72656L19.6357 8.72656ZM17.4541 13.091L17.4541 10.9092L15.2723 10.9092L15.2723 13.0908L13.0906 13.0908L13.0906 15.2726L15.2725 15.2726L15.2725 13.091L17.4541 13.091ZM13.0908 17.4553L13.0908 15.2734L10.909 15.2734L10.909 17.4541L8.72736 17.4541L8.72736 19.6357L6.54572 19.6357L6.54572 21.8174L4.36426 21.8174L4.36426 19.6357L2.18244 19.6357L2.18244 21.8174L2.18244 21.8176L2.18244 23.9992L4.36408 23.9992L4.36426 23.9992L6.5459 23.9992L6.5459 21.8176L8.72754 21.8176L8.72754 19.6359L10.9092 19.6359L10.9092 17.4553L13.0908 17.4553ZM2.18164 19.6359L2.18164 17.4541L-0.000178146 17.4541L-0.000178242 19.6359L2.18164 19.6359ZM2.18164 19.6367L2.18164 21.8185L-0.000178337 21.8185L-0.000178242 19.6367L2.18164 19.6367ZM19.6357 4.36328L19.6357 6.5451L17.4539 6.5451L17.4539 4.36346L15.2723 4.36346L15.2723 2.18164L17.4539 2.18164L17.4539 -2.86136e-07L19.6357 -1.90768e-07L19.6357 2.18182L17.4541 2.18182L17.4541 4.36328L19.6357 4.36328ZM8.72754 13.091L8.72754 10.9094L10.9092 10.9094L10.9092 8.72754L8.72736 8.72754L8.72736 10.9092L6.54572 10.9092L6.54572 13.0908L4.36408 13.0908L4.36408 15.2726L6.5459 15.2726L6.5459 13.091L8.72754 13.091ZM13.0908 8.72674L13.0908 6.54608L15.2725 6.54608L15.2725 4.36426L13.0906 4.36426L13.0906 6.54492L10.909 6.54492L10.909 8.72674L13.0908 8.72674ZM4.36426 15.2734L4.36426 17.4553L2.18244 17.4553L2.18244 15.2734L4.36426 15.2734Z" fill="white"/>
  <path fill-rule="evenodd" clip-rule="evenodd" d="M21.8184 2.18164L21.8184 4.36328L21.8184 4.36346L21.8184 6.5451L19.6365 6.5451L19.6365 4.36346L19.6365 4.36328L19.6365 2.18164L21.8184 2.18164ZM17.4541 6.54492L19.6357 6.54492L19.6357 8.72674L17.4541 8.72674L17.4541 8.72772L17.4541 10.9084L15.2725 10.9084L15.2723 10.9084L13.0908 10.9084L13.0908 10.9092L15.2725 10.9092L15.2725 13.091L13.0908 13.091L13.0908 15.2726L10.9092 15.2726L10.909 15.2726L8.72754 15.2726L8.72736 15.2726L6.54572 15.2726L6.54572 13.0908L8.72736 13.0908L8.72736 10.9092L10.909 10.9092L10.909 8.72754L13.0906 8.72754L13.0906 8.72656L13.0906 6.5459L15.2723 6.5459L15.2723 4.36426L17.4539 4.36426L17.4539 2.18262L19.6357 2.18262L19.6357 4.36444L17.4541 4.36444L17.4541 6.54492ZM8.72754 19.6359L8.72754 17.4553L10.9092 17.4553L10.9092 15.2734L8.72754 15.2734L8.72736 15.2734L6.5459 15.2734L6.54572 15.2734L4.36408 15.2734L4.36408 17.4541L2.18244 17.4541L2.18244 19.6359L4.36408 19.6359L4.36408 21.8176L6.5459 21.8176L6.5459 19.6359L8.72754 19.6359ZM2.18164 24.0002L2.18164 21.8184L-0.000176334 21.8184L-0.00017643 24.0002L2.18164 24.0002Z" fill="black"/>
</svg>