<svg width="26" height="30" viewBox="0 0 26 30" fill="none" xmlns="http://www.w3.org/2000/svg">
    <rect y="17.1431" width="2.14286" height="2.16667" transform="rotate(-90 0 17.1431)" fill="white"/>
    <rect x="6.5" y="17.1431" width="2.14286" height="2.16667" transform="rotate(-90 6.5 17.1431)" fill="white"/>
    <rect y="15.0005" width="2.14286" height="2.16667" transform="rotate(-90 0 15.0005)" fill="white"/>
    <rect x="2.16699" y="12.8574" width="2.14286" height="2.16667" transform="rotate(-90 2.16699 12.8574)" fill="white"/>
    <rect x="2.16699" y="19.2861" width="2.14286" height="2.16667" transform="rotate(-90 2.16699 19.2861)" fill="white"/>
    <rect x="4.33301" y="12.8574" width="2.14286" height="2.16667" transform="rotate(-90 4.33301 12.8574)" fill="white"/>
    <rect x="4.33301" y="19.2861" width="2.14286" height="2.16667" transform="rotate(-90 4.33301 19.2861)" fill="white"/>
    <rect x="6.5" y="15.0005" width="2.14286" height="2.16667" transform="rotate(-90 6.5 15.0005)" fill="white"/>
    <rect x="4.33301" y="15.0005" width="2.14286" height="2.16667" transform="rotate(-90 4.33301 15.0005)" fill="white"/>
    <rect x="2.16699" y="15.0005" width="2.14286" height="2.16667" transform="rotate(-90 2.16699 15.0005)" fill="white"/>
    <rect x="2.16699" y="17.1431" width="2.14286" height="2.16667" transform="rotate(-90 2.16699 17.1431)" fill="white"/>
    <rect x="4.33301" y="17.1431" width="2.14286" height="2.16667" transform="rotate(-90 4.33301 17.1431)" fill="white"/>
    <rect x="17.333" y="6.42871" width="2.14286" height="2.16667" transform="rotate(-90 17.333 6.42871)" fill="white"/>
    <rect x="23.833" y="6.42871" width="2.14286" height="2.16667" transform="rotate(-90 23.833 6.42871)" fill="white"/>
    <rect x="17.333" y="4.28564" width="2.14286" height="2.16667" transform="rotate(-90 17.333 4.28564)" fill="white"/>
    <rect x="19.5" y="2.14258" width="2.14286" height="2.16667" transform="rotate(-90 19.5 2.14258)" fill="white"/>
    <rect x="19.5" y="4.28613" width="2.14286" height="2.16667" transform="rotate(-90 19.5 4.28613)" fill="white"/>
    <rect x="19.5" y="6.42871" width="2.14286" height="2.16667" transform="rotate(-90 19.5 6.42871)" fill="white"/>
    <rect x="21.666" y="2.14258" width="2.14286" height="2.16667" transform="rotate(-90 21.666 2.14258)" fill="white"/>
    <rect x="19.5" y="8.57129" width="2.14286" height="2.16667" transform="rotate(-90 19.5 8.57129)" fill="white"/>
    <rect x="21.666" y="4.28613" width="2.14286" height="2.16667" transform="rotate(-90 21.666 4.28613)" fill="white"/>
    <rect x="21.666" y="6.42871" width="2.14286" height="2.16667" transform="rotate(-90 21.666 6.42871)" fill="white"/>
    <rect x="21.666" y="8.57129" width="2.14286" height="2.16667" transform="rotate(-90 21.666 8.57129)" fill="white"/>
    <rect x="23.833" y="4.28613" width="2.14286" height="2.16667" transform="rotate(-90 23.833 4.28613)" fill="white"/>
    <rect x="17.333" y="27.8574" width="2.14286" height="2.16667" transform="rotate(-90 17.333 27.8574)" fill="white"/>
    <rect x="23.833" y="27.8574" width="2.14286" height="2.16667" transform="rotate(-90 23.833 27.8574)" fill="white"/>
    <rect x="17.333" y="25.7144" width="2.14286" height="2.16667" transform="rotate(-90 17.333 25.7144)" fill="white"/>
    <rect x="19.5" y="25.7144" width="2.14286" height="2.16667" transform="rotate(-90 19.5 25.7144)" fill="white"/>
    <rect x="19.5" y="27.8574" width="2.14286" height="2.16667" transform="rotate(-90 19.5 27.8574)" fill="white"/>
    <rect x="21.666" y="25.7144" width="2.14286" height="2.16667" transform="rotate(-90 21.666 25.7144)" fill="white"/>
    <rect x="21.666" y="27.8574" width="2.14286" height="2.16667" transform="rotate(-90 21.666 27.8574)" fill="white"/>
    <rect x="19.5" y="23.5713" width="2.14286" height="2.16667" transform="rotate(-90 19.5 23.5713)" fill="white"/>
    <rect x="19.5" y="30" width="2.14286" height="2.16667" transform="rotate(-90 19.5 30)" fill="white"/>
    <rect x="21.666" y="23.5713" width="2.14286" height="2.16667" transform="rotate(-90 21.666 23.5713)" fill="white"/>
    <rect x="21.666" y="30" width="2.14286" height="2.16667" transform="rotate(-90 21.666 30)" fill="white"/>
    <rect x="23.833" y="25.7144" width="2.14286" height="2.16667" transform="rotate(-90 23.833 25.7144)" fill="white"/>
    <rect x="8.66699" y="12.8574" width="2.14286" height="2.16667" transform="rotate(-90 8.66699 12.8574)" fill="white"/>
    <rect x="8.66699" y="19.2861" width="2.14286" height="2.16667" transform="rotate(-90 8.66699 19.2861)" fill="white"/>
    <rect x="10.834" y="21.4287" width="2.14286" height="2.16667" transform="rotate(-90 10.834 21.4287)" fill="white"/>
    <rect x="13" y="21.4287" width="2.14286" height="2.16667" transform="rotate(-90 13 21.4287)" fill="white"/>
    <rect x="15.167" y="23.5713" width="2.14286" height="2.16667" transform="rotate(-90 15.167 23.5713)" fill="white"/>
    <rect x="10.834" y="10.7139" width="2.14286" height="2.16667" transform="rotate(-90 10.834 10.7139)" fill="white"/>
    <rect x="13" y="10.7144" width="2.14286" height="2.16667" transform="rotate(-90 13 10.7144)" fill="white"/>
    <rect x="15.167" y="8.57129" width="2.14286" height="2.16667" transform="rotate(-90 15.167 8.57129)" fill="white"/>
</svg>
    