<svg xmlns="http://www.w3.org/2000/svg" width="26" height="30" viewBox="0 0 26 30" fill="none">
<path fill-rule="evenodd" clip-rule="evenodd" d="M19.4998 -0.000116348V2.14274H21.6663H21.6664H23.833V-0.000116442H21.6664L21.6663 -0.000116348H19.4998ZM17.3333 4.28571V2.14286H19.5V2.14303H21.6663H21.6664H23.833V4.28577V4.28589V6.42851V6.42863V8.57137H21.6664H21.6663H19.4998V6.42863V6.42857H17.3333L17.3333 8.57137H15.1668V10.7141H13.0002H13.0001H10.8336V8.57125H13.0001H13.0002H15.1667V6.42851H17.3333L17.3333 4.28571ZM2.16667 10.7143V12.8571H0V15V17.1429H2.16667V19.2857H4.3331V19.2859H6.49976V17.143H4.33333V17.1429V17.1427H6.49965H6.49976H8.66631V15V14.9999V12.8571H6.49976V10.7144H4.33333V10.7143H2.16667ZM23.8337 4.28589V6.42863H26.0004V4.28589V4.28577V2.14303H23.8337V4.28577V4.28589ZM17.3333 27.8571V25.7143V23.5714H19.4998V23.5714V23.5713V21.4285H21.6663H21.6664H23.833V23.5713V23.5714V25.7141H21.6664H21.6663H19.5V25.7143V25.7144H21.6663H21.6664H23.833V27.8571V27.8573V30H21.6664H21.6663H19.4998V27.8573V27.8571H17.3333ZM23.8337 25.7144V27.8573H26.0004V25.7144H23.8337ZM23.8337 23.5713V25.7141H26.0004V23.5713H23.8337ZM8.66702 12.8573V10.7144H10.8337V12.8573H8.66702ZM8.66702 17.143V19.2859H10.8336V21.4286H13.0001H13.0002H15.1667V23.5714H17.3333V21.4285H15.1668V19.2858H13.0002H13.0001H10.8337V17.143H8.66702Z" fill="white"/>
</svg>