<svg width="26" height="26" viewBox="0 0 26 26" fill="none" xmlns="http://www.w3.org/2000/svg">
    <rect x="23.0283" y="14.5293" width="3.05882" height="2.97143" transform="rotate(-90 23.0283 14.5293)" fill="white"/>
    <rect x="20.7998" y="16.8237" width="5.35294" height="2.97143" transform="rotate(-90 20.7998 16.8237)" fill="white"/>
    <rect x="18.5713" y="19.1177" width="3.05882" height="2.97143" transform="rotate(-90 18.5713 19.1177)" fill="white"/>
    <rect x="16.3428" y="21.4116" width="15.2941" height="2.97143" transform="rotate(-90 16.3428 21.4116)" fill="white"/>
    <rect x="14.1143" y="23.7061" width="3.05882" height="2.97143" transform="rotate(-90 14.1143 23.7061)" fill="white"/>
    <rect x="11.8857" y="26" width="23.7059" height="2.97143" transform="rotate(-90 11.8857 26)" fill="white"/>
    <rect x="20.7998" y="12.2354" width="3.05882" height="2.97143" transform="rotate(-90 20.7998 12.2354)" fill="white"/>
    <rect x="18.5713" y="17.5884" width="10.7059" height="2.97143" transform="rotate(-90 18.5713 17.5884)" fill="white"/>
    <rect x="16.3428" y="7.64697" width="3.05882" height="2.97143" transform="rotate(-90 16.3428 7.64697)" fill="white"/>
    <rect x="14.1143" y="21.4116" width="19.1176" height="2.97143" transform="rotate(-90 14.1143 21.4116)" fill="white"/>
    <rect x="11.8857" y="3.05859" width="3.05882" height="2.97143" transform="rotate(-90 11.8857 3.05859)" fill="white"/>
    <rect x="11.1426" y="14.5293" width="3.05882" height="2.97143" transform="rotate(-90 11.1426 14.5293)" fill="white"/>
    <rect x="8.91406" y="16.8237" width="5.35294" height="2.97143" transform="rotate(-90 8.91406 16.8237)" fill="white"/>
    <rect x="6.68555" y="19.1177" width="3.05882" height="2.97143" transform="rotate(-90 6.68555 19.1177)" fill="white"/>
    <rect x="4.45703" y="21.4116" width="15.2941" height="2.97143" transform="rotate(-90 4.45703 21.4116)" fill="white"/>
    <rect x="2.22852" y="23.7061" width="3.05882" height="2.97143" transform="rotate(-90 2.22852 23.7061)" fill="white"/>
    <rect y="26" width="23.7059" height="2.97143" transform="rotate(-90 0 26)" fill="white"/>
    <rect x="8.91406" y="12.2354" width="3.05882" height="2.97143" transform="rotate(-90 8.91406 12.2354)" fill="white"/>
    <rect x="6.68555" y="17.5884" width="10.7059" height="2.97143" transform="rotate(-90 6.68555 17.5884)" fill="white"/>
    <rect x="4.45703" y="7.64697" width="3.05882" height="2.97143" transform="rotate(-90 4.45703 7.64697)" fill="white"/>
    <rect x="2.22852" y="21.4116" width="19.1176" height="2.97143" transform="rotate(-90 2.22852 21.4116)" fill="white"/>
    <rect y="3.05859" width="3.05882" height="2.97143" transform="rotate(-90 0 3.05859)" fill="white"/>
</svg>
    