<svg xmlns="http://www.w3.org/2000/svg" width="26" height="26" viewBox="0 0 26 26" fill="none">
<path fill-rule="evenodd" clip-rule="evenodd" d="M11.8857 2.29412L11.8857 0H14.8571V2.29412H17.0857V4.58824L19.3143 4.58824L19.3143 6.11765V6.88235H21.5429V9.17647H23.7714L23.7714 11.4706L26 11.4706V14.5294H23.7714V16.8235H21.5429L21.5429 17.5882L21.5429 19.1176H19.3143V21.4118H17.0857V23.7059H14.8571V26H11.8857L11.8857 16.8235H9.65714L9.65714 17.5882L9.65714 19.1176H7.42857V21.4118H5.2V23.7059H2.97143V26H0V3.05882V2.29412V0H2.97143L2.97143 2.29412H5.2V4.58824L7.42857 4.58824L7.42857 6.11765V6.88235H9.65714V9.17647H11.8857V3.05882L11.8857 2.29412Z" fill="white"/>
</svg>