<svg xmlns="http://www.w3.org/2000/svg" xmlns:xlink="http://www.w3.org/1999/xlink" viewBox="0 0 600 200"><defs><style>.cls-1{fill:none;}.cls-2{fill:#759cff;}.cls-3{fill:url(#리얼_완료_주카소);}</style><pattern id="리얼_완료_주카소" data-name="리얼 완료 주카소" width="600" height="600" patternTransform="translate(-343.89 -755.41)" patternUnits="userSpaceOnUse" viewBox="0 0 600 600"><rect class="cls-1" width="600" height="600"/><path class="cls-2" d="M.62,599.72h12v6h-2v2h-2v2h-2v2h-2v2h8v4H.62v-8h2v-2h2v-2h2v-2h-6Z"/><path class="cls-2" d="M77.49,599.72h8v2h2v14h-2v2h-8v-2h-2v-14h2Zm2,4v10h4v-10Z"/><path class="cls-2" d="M152.35,599.72h8v2h2v14h-2v2h-8v-2h-2v-14h2Zm2,4v10h4v-10Z"/><path class="cls-2" d="M227.21,599.72h8v2h2v4h-4v-2h-4v10h4v-2h4v4h-2v2h-8v-2h-2v-14h2Z"/><path class="cls-2" d="M302.07,599.72h8v2h2v16h-4v-6h-4v6h-4v-16h2Zm2,4v4h4v-4Z"/><path class="cls-2" d="M376.93,599.72h8v2h2v4h-2v2h2v8h-2v2h-8v-2h-2v-4h4v2h4v-4h-6v-2h-2v-6h2Zm2,4v2h4v-2Z"/><path class="cls-2" d="M451.79,599.72h8v2h2v4h-2v2h2v8h-2v2h-8v-2h-2v-4h4v2h4v-4h-6v-2h-2v-6h2Zm2,4v2h4v-2Z"/><path class="cls-2" d="M526.65,599.72h8v2h2v14h-2v2h-8v-2h-2v-14h2Zm2,4v10h4v-10Z"/><path class="cls-2" d="M.62,399.72h12v6h-2v2h-2v2h-2v2h-2v2h8v4H.62v-8h2v-2h2v-2h2v-2h-6Z"/><path class="cls-2" d="M77.49,399.72h8v2h2v14h-2v2h-8v-2h-2v-14h2Zm2,4v10h4v-10Z"/><path class="cls-2" d="M152.35,399.72h8v2h2v14h-2v2h-8v-2h-2v-14h2Zm2,4v10h4v-10Z"/><path class="cls-2" d="M227.21,399.72h8v2h2v4h-4v-2h-4v10h4v-2h4v4h-2v2h-8v-2h-2v-14h2Z"/><path class="cls-2" d="M302.07,399.72h8v2h2v16h-4v-6h-4v6h-4v-16h2Zm2,4v4h4v-4Z"/><path class="cls-2" d="M376.93,399.72h8v2h2v4h-2v2h2v8h-2v2h-8v-2h-2v-4h4v2h4v-4h-6v-2h-2v-6h2Zm2,4v2h4v-2Z"/><path class="cls-2" d="M451.79,399.72h8v2h2v4h-2v2h2v8h-2v2h-8v-2h-2v-4h4v2h4v-4h-6v-2h-2v-6h2Zm2,4v2h4v-2Z"/><path class="cls-2" d="M526.65,399.72h8v2h2v14h-2v2h-8v-2h-2v-14h2Zm2,4v10h4v-10Z"/><path class="cls-2" d="M264.58,502.3h12v6h-2v2h-2v2h-2v2h-2v2h8v4h-12v-8h2v-2h2v-2h2v-2h-6Z"/><path class="cls-2" d="M341.44,502.3h8v2h2v14h-2v2h-8v-2h-2v-14h2Zm2,4v10h4v-10Z"/><path class="cls-2" d="M416.3,502.3h8v2h2v14h-2v2h-8v-2h-2v-14h2Zm2,4v10h4v-10Z"/><path class="cls-2" d="M491.16,502.3h8v2h2v4h-4v-2h-4v10h4v-2h4v4h-2v2h-8v-2h-2v-14h2Z"/><path class="cls-2" d="M566,502.3h8v2h2v16h-4v-6h-4v6h-4v-16h2Zm2,4v4h4v-4Z"/><path class="cls-2" d="M40.88,502.3h8v2h2v4h-2v2h2v8h-2v2h-8v-2h-2v-4h4v2h4v-4h-6v-2h-2v-6h2Zm2,4v2h4v-2Z"/><path class="cls-2" d="M115.74,502.3h8v2h2v4h-2v2h2v8h-2v2h-8v-2h-2v-4h4v2h4v-4h-6v-2h-2v-6h2Zm2,4v2h4v-2Z"/><path class="cls-2" d="M190.6,502.3h8v2h2v14h-2v2h-8v-2h-2v-14h2Zm2,4v10h4v-10Z"/><path class="cls-2" d="M.62,199.72h12v6h-2v2h-2v2h-2v2h-2v2h8v4H.62v-8h2v-2h2v-2h2v-2h-6Z"/><path class="cls-2" d="M77.49,199.72h8v2h2v14h-2v2h-8v-2h-2v-14h2Zm2,4v10h4v-10Z"/><path class="cls-2" d="M152.35,199.72h8v2h2v14h-2v2h-8v-2h-2v-14h2Zm2,4v10h4v-10Z"/><path class="cls-2" d="M227.21,199.72h8v2h2v4h-4v-2h-4v10h4v-2h4v4h-2v2h-8v-2h-2v-14h2Z"/><path class="cls-2" d="M302.07,199.72h8v2h2v16h-4v-6h-4v6h-4v-16h2Zm2,4v4h4v-4Z"/><path class="cls-2" d="M376.93,199.72h8v2h2v4h-2v2h2v8h-2v2h-8v-2h-2v-4h4v2h4v-4h-6v-2h-2v-6h2Zm2,4v2h4v-2Z"/><path class="cls-2" d="M451.79,199.72h8v2h2v4h-2v2h2v8h-2v2h-8v-2h-2v-4h4v2h4v-4h-6v-2h-2v-6h2Zm2,4v2h4v-2Z"/><path class="cls-2" d="M526.65,199.72h8v2h2v14h-2v2h-8v-2h-2v-14h2Zm2,4v10h4v-10Z"/><path class="cls-2" d="M264.58,302.3h12v6h-2v2h-2v2h-2v2h-2v2h8v4h-12v-8h2v-2h2v-2h2v-2h-6Z"/><path class="cls-2" d="M341.44,302.3h8v2h2v14h-2v2h-8v-2h-2v-14h2Zm2,4v10h4v-10Z"/><path class="cls-2" d="M416.3,302.3h8v2h2v14h-2v2h-8v-2h-2v-14h2Zm2,4v10h4v-10Z"/><path class="cls-2" d="M491.16,302.3h8v2h2v4h-4v-2h-4v10h4v-2h4v4h-2v2h-8v-2h-2v-14h2Z"/><path class="cls-2" d="M566,302.3h8v2h2v16h-4v-6h-4v6h-4v-16h2Zm2,4v4h4v-4Z"/><path class="cls-2" d="M640.88,302.3h8v2h2v4h-2v2h2v8h-2v2h-8v-2h-2v-4h4v2h4v-4h-6v-2h-2v-6h2Zm2,4v2h4v-2Z"/><path class="cls-2" d="M715.74,302.3h8v2h2v4h-2v2h2v8h-2v2h-8v-2h-2v-4h4v2h4v-4h-6v-2h-2v-6h2Zm2,4v2h4v-2Z"/><path class="cls-2" d="M790.6,302.3h8v2h2v14h-2v2h-8v-2h-2v-14h2Zm2,4v10h4v-10Z"/><path class="cls-2" d="M40.88,302.3h8v2h2v4h-2v2h2v8h-2v2h-8v-2h-2v-4h4v2h4v-4h-6v-2h-2v-6h2Zm2,4v2h4v-2Z"/><path class="cls-2" d="M115.74,302.3h8v2h2v4h-2v2h2v8h-2v2h-8v-2h-2v-4h4v2h4v-4h-6v-2h-2v-6h2Zm2,4v2h4v-2Z"/><path class="cls-2" d="M190.6,302.3h8v2h2v14h-2v2h-8v-2h-2v-14h2Zm2,4v10h4v-10Z"/><path class="cls-2" d="M.62-.28h12v6h-2v2h-2v2h-2v2h-2v2h8v4H.62v-8h2v-2h2v-2h2v-2h-6Z"/><path class="cls-2" d="M77.49-.28h8v2h2v14h-2v2h-8v-2h-2v-14h2Zm2,4v10h4v-10Z"/><path class="cls-2" d="M152.35-.28h8v2h2v14h-2v2h-8v-2h-2v-14h2Zm2,4v10h4v-10Z"/><path class="cls-2" d="M227.21-.28h8v2h2v4h-4v-2h-4v10h4v-2h4v4h-2v2h-8v-2h-2v-14h2Z"/><path class="cls-2" d="M302.07-.28h8v2h2v16h-4v-6h-4v6h-4v-16h2Zm2,4v4h4v-4Z"/><path class="cls-2" d="M376.93-.28h8v2h2v4h-2v2h2v8h-2v2h-8v-2h-2v-4h4v2h4v-4h-6v-2h-2v-6h2Zm2,4v2h4v-2Z"/><path class="cls-2" d="M451.79-.28h8v2h2v4h-2v2h2v8h-2v2h-8v-2h-2v-4h4v2h4v-4h-6v-2h-2v-6h2Zm2,4v2h4v-2Z"/><path class="cls-2" d="M526.65-.28h8v2h2v14h-2v2h-8v-2h-2v-14h2Zm2,4v10h4v-10Z"/><path class="cls-2" d="M264.58,102.3h12v6h-2v2h-2v2h-2v2h-2v2h8v4h-12v-8h2v-2h2v-2h2v-2h-6Z"/><path class="cls-2" d="M341.44,102.3h8v2h2v14h-2v2h-8v-2h-2v-14h2Zm2,4v10h4v-10Z"/><path class="cls-2" d="M416.3,102.3h8v2h2v14h-2v2h-8v-2h-2v-14h2Zm2,4v10h4v-10Z"/><path class="cls-2" d="M491.16,102.3h8v2h2v4h-4v-2h-4v10h4v-2h4v4h-2v2h-8v-2h-2v-14h2Z"/><path class="cls-2" d="M566,102.3h8v2h2v16h-4v-6h-4v6h-4v-16h2Zm2,4v4h4v-4Z"/><path class="cls-2" d="M40.88,102.3h8v2h2v4h-2v2h2v8h-2v2h-8v-2h-2v-4h4v2h4v-4h-6v-2h-2v-6h2Zm2,4v2h4v-2Z"/><path class="cls-2" d="M115.74,102.3h8v2h2v4h-2v2h2v8h-2v2h-8v-2h-2v-4h4v2h4v-4h-6v-2h-2v-6h2Zm2,4v2h4v-2Z"/><path class="cls-2" d="M190.6,102.3h8v2h2v14h-2v2h-8v-2h-2v-14h2Zm2,4v10h4v-10Z"/></pattern></defs><g id="레이어_2" data-name="레이어 2"><g id="레이어_1-2" data-name="레이어 1"><rect class="cls-3" width="600" height="200"/></g></g></svg>